<svg role="img" viewBox="0 0 24 24" xmlns="http://www.w3.org/2000/svg" id="Wipro--Streamline-Simple-Icons" height="24" width="24"><desc>Wipro Streamline Icon: https://streamlinehq.com</desc><title>Wipro</title><path d="M15.5415 12.0352c0 -0.8754 -0.69 -1.5851 -1.541 -1.5851 -0.8513 0 -1.5415 0.7097 -1.5415 1.585 0 0.8757 0.6902 1.5854 1.5416 1.5854 0.851 0 1.541 -0.7097 1.541 -1.5853zm-1.541 0.837c-0.4373 0 -0.7927 -0.3755 -0.7927 -0.837 0 -0.4611 0.3554 -0.8366 0.7928 -0.8366 0.437 0 0.7923 0.3755 0.7923 0.8366 0 0.4615 -0.3554 0.837 -0.7923 0.837zm-9.5842 -2.2084 -0.9272 2.8733c-0.0148 0.046 -0.0665 0.0835 -0.1152 0.0835h-0.084c-0.0484 0 -0.1064 -0.0352 -0.1287 -0.078l-0.95 -1.8242 -0.9496 1.8243c-0.0225 0.0427 -0.0803 0.0779 -0.1289 0.0779h-0.0842c-0.0483 0 -0.1002 -0.0374 -0.115 -0.0835L0.006 10.6638c-0.0222 -0.0693 0.019 -0.126 0.0915 -0.126h0.5677c0.0483 0 0.1002 0.0379 0.115 0.084l0.4688 1.452 0.8047 -1.5458c0.0223 -0.0428 0.0804 -0.0779 0.1289 -0.0779H2.24c0.0485 0 0.1063 0.0351 0.1289 0.0779l0.805 1.5458 0.4685 -1.452c0.0148 -0.0461 0.0667 -0.084 0.1152 -0.084h0.5672c0.0727 0 0.1138 0.0567 0.0915 0.126zm1.368 2.7367a0.1323 0.1323 0 0 1 -0.1321 0.1322h-0.5726a0.1321 0.1321 0 0 1 -0.132 -0.1322v-2.7304c0 -0.0729 0.059 -0.1322 0.132 -0.1322h0.5726a0.1323 0.1323 0 0 1 0.1322 0.1322v2.7304zm0.7409 -2.7305v4.3155c0 0.0733 0.059 0.1322 0.1321 0.1322h0.5725a0.1318 0.1318 0 0 0 0.132 -0.1322v-1.497c0.2426 0.085 0.5106 0.132 0.7927 0.132 0.8024 0 1.4531 -0.7097 1.4531 -1.5853 0 -0.8754 -0.6507 -1.5851 -1.4531 -1.5851 -0.394 0 -0.751 0.171 -1.0127 0.4487l-0.0002 -0.0004 -0.1018 -0.2777c-0.0167 -0.0453 -0.07 -0.0829 -0.1183 -0.0829h-0.2642a0.1321 0.1321 0 0 0 -0.1321 0.1322zm0.8365 0.9c0.1376 -0.2239 0.3713 -0.3714 0.6373 -0.3714 0.4235 0 0.7667 0.3746 0.7667 0.8366 0 0.4622 -0.3432 0.837 -0.7667 0.837 -0.2396 0 -0.4599 -0.063 -0.6373 -0.1694V11.57zm3.5755 1.9627h-0.5723a0.1321 0.1321 0 0 1 -0.1321 -0.1321V10.67c0 -0.0729 0.059 -0.1322 0.1321 -0.1322h0.2642c0.0483 0 0.1016 0.0376 0.1183 0.0829l0.1018 0.2777s0.3195 -0.4483 0.87 -0.4483c0.5507 0 0.6172 0.1897 0.5712 0.2947 -0.0463 0.1047 -0.1714 0.3878 -0.197 0.4454 -0.0254 0.058 -0.0903 0.099 -0.1772 0.0657 -0.087 -0.0335 -0.5128 -0.1723 -0.8469 0.2329v1.9118a0.1323 0.1323 0 0 1 -0.1321 0.1321zm4.6893 -10.3422a0.704 0.704 0 0 1 0.8628 -0.4977 0.7043 0.7043 0 1 1 -0.3647 1.3607 0.7046 0.7046 0 0 1 -0.498 -0.863zm1.8466 2.7892a0.5286 0.5286 0 0 1 0.1935 0.722 0.528 0.528 0 0 1 -0.7218 0.193 0.5281 0.5281 0 0 1 -0.1935 -0.7215 0.5281 0.5281 0 0 1 0.7218 -0.1935zm0.664 10.9686a0.5727 0.5727 0 0 1 0 -0.8099 0.5722 0.5722 0 0 1 0.8096 0 0.5727 0.5727 0 0 1 0 0.81 0.573 0.573 0 0 1 -0.8095 0zm-2.4577 -7.377a0.2423 0.2423 0 0 1 -0.4196 -0.2423 0.2422 0.2422 0 1 1 0.4196 0.2422zm-0.4196 5.1001a0.2423 0.2423 0 0 1 0.4196 -0.2422 0.2425 0.2425 0 0 1 -0.0888 0.331 0.2426 0.2426 0 0 1 -0.3308 -0.0888zm3.7296 -2.6713a0.517 0.517 0 1 1 -0.5169 -0.5169 0.517 0.517 0 0 1 0.517 0.5169zM17.816 3.8893a0.7485 0.7485 0 1 1 1.2962 0.749 0.7485 0.7485 0 0 1 -1.2962 -0.749zm-5.43 10.5742a0.154 0.154 0 1 1 0.2666 0.154 0.154 0.154 0 0 1 -0.2666 -0.154zm2.8037 -8.7912a0.4842 0.4842 0 1 1 0.9354 0.2502 0.4843 0.4843 0 0 1 -0.593 0.3428 0.4844 0.4844 0 0 1 -0.3424 -0.593zM13.993 7.8486a0.308 0.308 0 1 1 0 -0.6162 0.308 0.308 0 1 1 0 0.6162zm0 1.0129a0.1982 0.1982 0 1 1 0.0002 0.3962 0.1982 0.1982 0 0 1 -0.0002 -0.3962zm0 -2.84a0.4404 0.4404 0 1 1 0 -0.881 0.4404 0.4404 0 0 1 0 0.881zm-1.6072 3.5154a0.154 0.154 0 1 1 0.2102 0.0564 0.1537 0.1537 0 0 1 -0.2102 -0.0564zm1.6072 5.602a0.1982 0.1982 0 1 1 -0.0001 -0.3963 0.1982 0.1982 0 0 1 0 0.3964zm0 1.0127a0.3081 0.3081 0 0 1 0 0.6165 0.3081 0.3081 0 1 1 0 -0.6165zm3.4944 -2.1381a0.4399 0.4399 0 0 1 0.6014 -0.161 0.44 0.44 0 0 1 0.161 0.6013 0.4402 0.4402 0 0 1 -0.7624 -0.4403zM13.993 17.979a0.4404 0.4404 0 1 1 -0.0002 0.8808 0.4404 0.4404 0 0 1 0.0002 -0.8808zm9.5772 -8.5426c0.1383 0.5164 -0.168 1.0476 -0.6848 1.186 -0.5165 0.1383 -1.0478 -0.1684 -1.1861 -0.6849 -0.1386 -0.5164 0.1682 -1.0475 0.6847 -1.186 0.5165 -0.1384 1.0476 0.168 1.1862 0.6849zm-6.694 6.0018a0.3963 0.3963 0 0 1 0.5602 -0.5607 0.396 0.396 0 0 1 0 0.5602 0.3958 0.3958 0 0 1 -0.5602 0.0005zm0.9736 -4.4694a0.484 0.484 0 0 1 0.3424 -0.5928 0.4841 0.4841 0 1 1 0.2507 0.9353 0.484 0.484 0 0 1 -0.593 -0.3425zm1.4076 -2.7157a0.6165 0.6165 0 0 1 0.6166 1.0676 0.6165 0.6165 0 0 1 -0.6166 -1.0676zm-0.3108 -0.3913a0.5722 0.5722 0 0 1 -0.8095 0 0.5725 0.5725 0 0 1 0 -0.8097 0.5722 0.5722 0 0 1 0.8095 0 0.5725 0.5725 0 0 1 0 0.8097zm-1.0968 5.1692a0.4842 0.4842 0 0 1 0.9355 0.2509 0.4842 0.4842 0 1 1 -0.9355 -0.251zm-3.0186 -5.4263a0.3303 0.3303 0 0 1 0.4041 -0.2336 0.3303 0.3303 0 0 1 -0.1706 0.6381 0.3303 0.3303 0 0 1 -0.2335 -0.4045zm6.4676 -0.835c0.4213 -0.2434 0.96 -0.0992 1.2031 0.3218a0.8806 0.8806 0 1 1 -1.5254 0.8808c-0.2429 -0.421 -0.0987 -0.9596 0.3223 -1.2027zm-3.049 2.777a0.4401 0.4401 0 1 1 -0.7624 0.4402 0.4401 0.4401 0 1 1 0.7624 -0.4402zm1.3227 0.9608a0.6606 0.6606 0 0 1 0.4667 -0.8089 0.6605 0.6605 0 0 1 0.342 1.2758 0.6605 0.6605 0 0 1 -0.8087 -0.467zm0 2.9854a0.6603 0.6603 0 1 1 1.2756 0.3416 0.6602 0.6602 0 1 1 -1.2756 -0.3416zm0.8594 -0.7354a0.7574 0.7574 0 1 1 -0.0002 -1.5146 0.7574 0.7574 0 0 1 0.0002 1.5146zm-0.6756 -6.5149a0.7921 0.7921 0 0 1 0 -1.1207c0.3095 -0.3095 0.8115 -0.31 1.1209 0a0.7926 0.7926 0 0 1 -1.1209 1.1207zm-3.2223 2.068a0.3522 0.3522 0 1 1 -0.61 -0.3523 0.3522 0.3522 0 0 1 0.61 0.3522zm-0.6387 5.5862a0.2642 0.2642 0 0 1 0.3738 -0.0004 0.2646 0.2646 0 0 1 0 0.3738 0.2638 0.2638 0 0 1 -0.3738 0 0.2637 0.2637 0 0 1 0 -0.3734zm0 -4.1666a0.2642 0.2642 0 0 1 0.3738 -0.0004 0.2642 0.2642 0 1 1 -0.3738 0.0004zm0.5146 3.9917a0.2868 0.2868 0 0 1 -0.105 -0.391 0.2862 0.2862 0 0 1 0.3912 -0.1046 0.2863 0.2863 0 0 1 -0.2862 0.4956zm-0.486 2.3203a0.352 0.352 0 0 1 0.129 -0.4811 0.352 0.352 0 0 1 0.4811 0.1288 0.352 0.352 0 0 1 -0.1289 0.4811 0.3521 0.3521 0 0 1 -0.4811 -0.1288zm0.877 -5.659a0.286 0.286 0 0 1 -0.1048 0.3909 0.2867 0.2867 0 0 1 -0.3911 -0.1049 0.2862 0.2862 0 0 1 0.4958 -0.286zm-0.2485 0.9334a0.3082 0.3082 0 1 1 0.5955 -0.1596 0.3082 0.3082 0 0 1 -0.5955 0.1596zm0 1.3668a0.3083 0.3083 0 1 1 0.5953 0.1602 0.3083 0.3083 0 0 1 -0.5953 -0.1602zm0.4008 -0.3467a0.3366 0.3366 0 1 1 0.0001 -0.6731 0.3366 0.3366 0 0 1 -0.0001 0.6731zm0.4832 -3.7744a0.3963 0.3963 0 1 1 -0.5602 0.5608 0.3963 0.3963 0 0 1 0.5602 -0.5608zm-7.416 11.4507a0.573 0.573 0 0 1 -0.782 0.2096 0.5726 0.5726 0 0 1 0.5725 -0.9916 0.5725 0.5725 0 0 1 0.2096 0.782zM14.814 8.945a0.2202 0.2202 0 1 1 -0.114 0.4253 0.2202 0.2202 0 0 1 0.114 -0.4254zm-2.5387 11.8366a0.6164 0.6164 0 1 1 -1.1908 -0.3189 0.6164 0.6164 0 0 1 1.1908 0.319zm2.5387 -5.726a0.2203 0.2203 0 0 1 -0.1138 -0.4255 0.22 0.22 0 1 1 0.1138 0.4254zm-0.1604 5.8739a0.6603 0.6603 0 0 1 -0.6604 0.6602 0.6603 0.6603 0 0 1 -0.6606 -0.6602c0 -0.3649 0.2959 -0.6608 0.6606 -0.6608 0.3647 0 0.6604 0.296 0.6604 0.6608zm-1.4693 -5.9217a0.1767 0.1767 0 0 1 -0.1247 -0.2158 0.1766 0.1766 0 0 1 0.216 -0.1245 0.1761 0.1761 0 0 1 -0.0913 0.3403zm-0.0712 1.3712a0.2863 0.2863 0 1 1 -0.5526 -0.1478 0.2863 0.2863 0 0 1 0.5526 0.1478zm-2.795 -2.2726a0.2202 0.2202 0 0 1 -0.3812 0.2202 0.2195 0.2195 0 0 1 0.0805 -0.3005 0.2198 0.2198 0 0 1 0.3007 0.0803zm1.6704 1.8817a0.2642 0.2642 0 1 1 -0.4578 -0.2638 0.2642 0.2642 0 0 1 0.4578 0.2638zm0.0148 -1.8253a0.1321 0.1321 0 1 1 -0.1869 -0.1869 0.1328 0.1328 0 0 1 0.187 0 0.1325 0.1325 0 0 1 0 0.187zm-0.9966 0.81a0.242 0.242 0 1 1 -0.3423 0.342 0.2418 0.2418 0 0 1 0 -0.342 0.2417 0.2417 0 0 1 0.3423 0zm0.0783 2.7563a0.3518 0.3518 0 0 1 -0.4811 0.1289 0.3522 0.3522 0 1 1 0.4811 -0.1289zm9.7924 0.0285a0.7926 0.7926 0 0 1 0 1.121c-0.3094 0.3097 -0.8114 0.3093 -1.121 0 -0.3097 -0.3094 -0.3095 -0.8114 0 -1.121a0.793 0.793 0 0 1 1.121 0zm-1.6198 -2.0103a0.6169 0.6169 0 0 1 -0.2255 -0.8423 0.6168 0.6168 0 0 1 0.842 -0.2255 0.6165 0.6165 0 0 1 -0.6166 1.0678zm3.2445 1.1612c-0.243 0.4214 -0.7818 0.5656 -1.203 0.3223 -0.4211 -0.243 -0.5653 -0.7816 -0.3224 -1.2026 0.2437 -0.4211 0.782 -0.5655 1.203 -0.3224 0.4213 0.2433 0.5657 0.7816 0.3224 1.2027zm-7.2666 -0.2796a0.33 0.33 0 1 1 -0.1706 -0.638 0.3301 0.3301 0 0 1 0.1706 0.638zM24 12c0 0.584 -0.4735 1.058 -1.058 1.058 -0.5843 0 -1.0578 -0.474 -1.0578 -1.058 0 -0.5842 0.4735 -1.0579 1.0579 -1.0579S24 11.4159 24 12.0001zm-0.4297 2.564c-0.1386 0.5164 -0.6697 0.8233 -1.1862 0.685 -0.5165 -0.1387 -0.8233 -0.6698 -0.6847 -1.1862 0.1383 -0.5169 0.6696 -0.8234 1.1861 -0.685 0.5169 0.1386 0.8231 0.6697 0.6848 1.1861zm-6.583 5.881a0.7044 0.7044 0 1 1 -1.3608 0.3643 0.7042 0.7042 0 0 1 0.4981 -0.8625 0.7043 0.7043 0 0 1 0.8628 0.4981zm2.1248 -1.0825a0.748 0.748 0 0 1 -0.274 1.0221 0.7482 0.7482 0 0 1 -1.0222 -0.2738 0.748 0.748 0 0 1 0.2738 -1.0224 0.7484 0.7484 0 0 1 1.0224 0.274zm-3.9225 -1.0344a0.4843 0.4843 0 1 1 0.9355 -0.2507 0.4843 0.4843 0 0 1 -0.9355 0.2507zm2.2835 -0.3077a0.5284 0.5284 0 1 1 -0.5284 -0.9153 0.5284 0.5284 0 0 1 0.5284 0.9153zm-4.761 0.2798a0.3963 0.3963 0 0 1 -0.7655 -0.205 0.396 0.396 0 0 1 0.4853 -0.2803 0.3964 0.3964 0 0 1 0.2802 0.4853zm-0.8958 -8.2762a0.132 0.132 0 1 1 0.1868 -0.1869 0.132 0.132 0 0 1 -0.1868 0.1869zm0.0754 -1.651a0.2643 0.2643 0 0 1 -0.2643 -0.4576 0.2642 0.2642 0 0 1 0.2643 0.4576zm-0.8072 -4.8355a0.6164 0.6164 0 1 1 1.1905 -0.3188 0.6164 0.6164 0 0 1 -1.1905 0.3188zm-0.847 6.0555a0.22 0.22 0 1 1 -0.2201 0.3812 0.2195 0.2195 0 0 1 -0.0806 -0.3004 0.22 0.22 0 0 1 0.3006 -0.0808zm0.7691 -0.908a0.2423 0.2423 0 0 1 -0.3423 0.3426 0.2423 0.2423 0 0 1 0.3423 -0.3426zm-0.5319 -2.0617a0.3524 0.3524 0 0 1 0.6102 -0.352 0.3522 0.3522 0 0 1 -0.6102 0.352zm2.8578 -3.5523c0 -0.3648 0.2959 -0.6608 0.6606 -0.6608 0.3647 0 0.6604 0.296 0.6604 0.6608a0.6606 0.6606 0 0 1 -0.6604 0.6607 0.6608 0.6608 0 0 1 -0.6606 -0.6607zm-0.1483 5.9215a0.1761 0.1761 0 1 1 0.091 0.3404 0.1761 0.1761 0 0 1 -0.091 -0.3404zm-0.9575 -3.5729a0.3964 0.3964 0 0 1 0.2053 0.7657 0.3962 0.3962 0 0 1 -0.4854 -0.2802 0.3966 0.3966 0 0 1 0.28 -0.4855zm0.5358 1.9992a0.2863 0.2863 0 1 1 0.148 0.553 0.2863 0.2863 0 0 1 -0.148 -0.553zM9.0292 4.5596a0.5724 0.5724 0 0 1 0.2094 -0.7818 0.5725 0.5725 0 0 1 0.5724 0.9914 0.572 0.572 0 0 1 -0.7818 -0.2096zm-0.37 10.5048a0.2643 0.2643 0 1 1 -0.458 0.264 0.2643 0.2643 0 0 1 0.458 -0.264zM4.9193 9.4585a0.462 0.462 0 0 1 0.566 -0.3267 0.462 0.462 0 0 1 0.327 0.5658 0.4621 0.4621 0 0 1 -0.5661 0.3271 0.4624 0.4624 0 0 1 -0.327 -0.5662zm0.9001 -2.1691a0.4843 0.4843 0 1 1 0.1772 0.6616 0.4845 0.4845 0 0 1 -0.1772 -0.6616zm2.2292 10.6412a0.528 0.528 0 0 1 0 0.7472 0.5286 0.5286 0 0 1 -0.7473 0 0.5285 0.5285 0 0 1 0 -0.7472 0.5282 0.5282 0 0 1 0.7473 0zM6.676 16.2091a0.4842 0.4842 0 1 1 -0.8386 0.4845 0.4842 0.4842 0 0 1 0.8386 -0.4845zm0.6255 -10.1393a0.5285 0.5285 0 0 1 0 -0.7472 0.5286 0.5286 0 0 1 0.7473 0 0.528 0.528 0 0 1 0 0.7472 0.5282 0.5282 0 0 1 -0.7473 0zM9.6679 7.689a0.3086 0.3086 0 0 1 -0.436 0 0.3085 0.3085 0 0 1 0 -0.4362 0.3086 0.3086 0 0 1 0.436 0 0.3085 0.3085 0 0 1 0 0.4362zm0 8.6225a0.3082 0.3082 0 1 1 -0.4359 0.4359 0.3082 0.3082 0 0 1 0.4359 -0.436zM8.2015 8.6719a0.2642 0.2642 0 1 1 0.4574 0.2642 0.2642 0.2642 0 0 1 -0.4574 -0.2642z" fill="#000000" stroke-width="1"></path></svg>